<?xml version="1.0" standalone="no"?>
<!DOCTYPE svg PUBLIC "-//W3C//DTD SVG 20010904//EN"
 "http://www.w3.org/TR/2001/REC-SVG-20010904/DTD/svg10.dtd">
<svg version="1.0" xmlns="http://www.w3.org/2000/svg"
 width="99.000000pt" height="99.000000pt" viewBox="0 0 99.000000 99.000000"
 preserveAspectRatio="xMidYMid meet">

<g transform="translate(0.000000,99.000000) scale(0.100000,-0.100000)"
fill="#000000" stroke="none">
<path d="M416 883 c-9 -21 16 -46 37 -37 9 3 17 17 17 30 0 19 -5 24 -24 24
-13 0 -27 -8 -30 -17z"/>
<path d="M491 875 c-1 -32 -16 -55 -37 -55 -6 0 -27 11 -46 23 l-34 24 13 -51
c11 -41 12 -62 2 -109 l-12 -58 -22 21 c-12 11 -40 23 -61 26 -37 5 -38 4 -19
-10 35 -27 45 -37 45 -44 -1 -11 -23 -37 -48 -54 -22 -15 -21 -15 32 -21 30
-3 74 -16 98 -30 30 -17 50 -22 68 -17 25 6 25 6 3 14 -33 11 -63 54 -63 90 0
17 9 46 20 64 12 19 15 31 8 27 -7 -4 4 9 24 27 47 41 63 88 43 132 l-13 31
-1 -30z"/>
<path d="M234 645 c-8 -19 3 -35 26 -35 19 0 34 25 24 41 -8 14 -44 10 -50 -6z"/>
<path d="M281 34 c0 -11 3 -14 6 -6 3 7 2 16 -1 19 -3 4 -6 -2 -5 -13z"/>
</g>
</svg>
